{
  "accessors": [
    {
      "bufferView": 2,
      "componentType": 5126,
      "count": 16842,
      "max": [
        1.8259575366973877,
        0.013298945501446724,
        1.8259575366973877
      ],
      "min": [
        -1.8259575366973877,
        -0.013298945501446724,
        -1.8259575366973877
      ],
      "type": "VEC3"
    },
    {
      "bufferView": 2,
      "byteOffset": 202104,
      "componentType": 5126,
      "count": 16842,
      "max": [
        0.8164382576942444,
        1.0,
        0.8367668986320496
      ],
      "min": [
        -0.7955013513565063,
        -1.0,
        -0.816438615322113
      ],
      "type": "VEC3"
    },
    {
      "bufferView": 1,
      "componentType": 5126,
      "count": 16842,
      "max": [
        0.7922422885894775,
        0.766090989112854
      ],
      "min": [
        0.414438933134079,
        0.16588354110717773
      ],
      "type": "VEC2"
    },
    {
      "bufferView": 0,
      "componentType": 5125,
      "count": 49704,
      "type": "SCALAR"
    },
    {
      "bufferView": 2,
      "byteOffset": 404208,
      "componentType": 5126,
      "count": 60890,
      "max": [
        13.507429122924805,
        0.2601028084754944,
        13.507429122924805
      ],
      "min": [
        -13.507429122924805,
        -1.3005034923553467,
        -13.507429122924805
      ],
      "type": "VEC3"
    },
    {
      "bufferView": 2,
      "byteOffset": 1134888,
      "componentType": 5126,
      "count": 60890,
      "max": [
        1.0,
        1.0,
        1.0
      ],
      "min": [
        -1.0,
        -1.0,
        -1.0
      ],
      "type": "VEC3"
    },
    {
      "bufferView": 1,
      "byteOffset": 134736,
      "componentType": 5126,
      "count": 60890,
      "max": [
        0.9999999403953552,
        1.0
      ],
      "min": [
        0.0,
        0.00014901161193847656
      ],
      "type": "VEC2"
    },
    {
      "bufferView": 0,
      "byteOffset": 198816,
      "componentType": 5125,
      "count": 146442,
      "type": "SCALAR"
    },
    {
      "bufferView": 2,
      "byteOffset": 1865568,
      "componentType": 5126,
      "count": 15588,
      "max": [
        12.631139755249023,
        2.0578740986820776e-06,
        12.631139755249023
      ],
      "min": [
        -12.631139755249023,
        -2.0578740986820776e-06,
        -12.631139755249023
      ],
      "type": "VEC3"
    },
    {
      "bufferView": 2,
      "byteOffset": 2052624,
      "componentType": 5126,
      "count": 15588,
      "max": [
        7.892486035381008e-13,
        1.0,
        1.629240102829499e-07
      ],
      "min": [
        -7.892486035381008e-13,
        1.0,
        1.629153132398642e-07
      ],
      "type": "VEC3"
    },
    {
      "bufferView": 1,
      "byteOffset": 621856,
      "componentType": 5126,
      "count": 15588,
      "max": [
        0.40580081939697266,
        0.5821866989135742
      ],
      "min": [
        0.0,
        0.17638587951660156
      ],
      "type": "VEC2"
    },
    {
      "bufferView": 0,
      "byteOffset": 784584,
      "componentType": 5125,
      "count": 47712,
      "type": "SCALAR"
    }
  ],
  "asset": {
    "extras": {
      "author": "defnotdan (https://sketchfab.com/defnotdan)",
      "license": "CC-BY-4.0 (http://creativecommons.org/licenses/by/4.0/)",
      "source": "https://sketchfab.com/3d-models/centre-of-the-maze-73dbab46b2804549a23722a1d0382dd0",
      "title": "Centre of The Maze"
    },
    "generator": "Sketchfab-14.83.0",
    "version": "2.0"
  },
  "bufferViews": [
    {
      "buffer": 0,
      "byteLength": 975432,
      "name": "floatBufferViews",
      "target": 34963
    },
    {
      "buffer": 0,
      "byteLength": 746560,
      "byteOffset": 975432,
      "byteStride": 8,
      "name": "floatBufferViews",
      "target": 34962
    },
    {
      "buffer": 0,
      "byteLength": 2239680,
      "byteOffset": 1721992,
      "byteStride": 12,
      "name": "floatBufferViews",
      "target": 34962
    }
  ],
  "buffers": [
    {
      "byteLength": 3961672,
      "uri": "scene.bin"
    }
  ],
  "materials": [
    {
      "doubleSided": true,
      "emissiveFactor": [
        1.0,
        1.0,
        1.0
      ],
      "name": "Blue_Glow",
      "pbrMetallicRoughness": {
        "baseColorFactor": [
          0.8,
          0.8,
          0.8,
          1.0
        ],
        "metallicFactor": 0.0,
        "roughnessFactor": 0.5
      }
    },
    {
      "doubleSided": true,
      "name": "BASE",
      "pbrMetallicRoughness": {
        "baseColorFactor": [
          0.0401005,
          0.0491387,
          0.0491387,
          1.0
        ],
        "metallicFactor": 0.0,
        "roughnessFactor": 0.154644
      }
    },
    {
      "doubleSided": true,
      "emissiveFactor": [
        1.0,
        1.0,
        0.419565
      ],
      "name": "Orange_Glow",
      "pbrMetallicRoughness": {
        "baseColorFactor": [
          0.0,
          0.0,
          0.0,
          1.0
        ],
        "metallicFactor": 0.0,
        "roughnessFactor": 0.5
      }
    }
  ],
  "meshes": [
    {
      "name": "Object_0",
      "primitives": [
        {
          "attributes": {
            "NORMAL": 1,
            "POSITION": 0,
            "TEXCOORD_0": 2
          },
          "indices": 3,
          "material": 0,
          "mode": 4
        }
      ]
    },
    {
      "name": "Object_1",
      "primitives": [
        {
          "attributes": {
            "NORMAL": 5,
            "POSITION": 4,
            "TEXCOORD_0": 6
          },
          "indices": 7,
          "material": 1,
          "mode": 4
        }
      ]
    },
    {
      "name": "Object_2",
      "primitives": [
        {
          "attributes": {
            "NORMAL": 9,
            "POSITION": 8,
            "TEXCOORD_0": 10
          },
          "indices": 11,
          "material": 2,
          "mode": 4
        }
      ]
    }
  ],
  "nodes": [
    {
      "children": [
        1
      ],
      "matrix": [
        1.0,
        0.0,
        0.0,
        0.0,
        0.0,
        2.220446049250313e-16,
        -1.0,
        0.0,
        0.0,
        1.0,
        2.220446049250313e-16,
        0.0,
        0.0,
        0.0,
        0.0,
        1.0
      ],
      "name": "Sketchfab_model"
    },
    {
      "children": [
        2
      ],
      "name": "root"
    },
    {
      "children": [
        3
      ],
      "matrix": [
        1.0,
        0.0,
        0.0,
        0.0,
        0.0,
        2.220446049250313e-16,
        1.0,
        0.0,
        0.0,
        -1.0,
        2.220446049250313e-16,
        0.0,
        0.0,
        0.0,
        0.0,
        1.0
      ],
      "name": "GLTF_SceneRootNode"
    },
    {
      "children": [
        4,
        5,
        6
      ],
      "matrix": [
        0.7689329981803894,
        0.0,
        0.0,
        0.0,
        0.0,
        0.7689329981803894,
        0.0,
        0.0,
        0.0,
        0.0,
        0.7689329981803894,
        0.0,
        0.0,
        0.0,
        0.0,
        1.0
      ],
      "name": "Maze_1.001_0"
    },
    {
      "mesh": 0,
      "name": "Object_4"
    },
    {
      "mesh": 1,
      "name": "Object_5"
    },
    {
      "mesh": 2,
      "name": "Object_6"
    }
  ],
  "scene": 0,
  "scenes": [
    {
      "name": "Sketchfab_Scene",
      "nodes": [
        0
      ]
    }
  ]
}
